<svg width="1200" height="2200" xmlns="http://www.w3.org/2000/svg">
  <defs>
    <style>
      @import url('https://fonts.googleapis.com/css2?family=Inter:wght@400;500;600;700&amp;display=swap');

      .screen-bg { fill: #FAFAFA; }
      .card { fill: #FFFFFF; }
      .primary { fill: #2563EB; }
      .primary-light { fill: #DBEAFE; }
      .success { fill: #10B981; }
      .warning { fill: #F59E0B; }
      .text-primary { fill: #111827; font-family: 'Inter', sans-serif; }
      .text-secondary { fill: #6B7280; font-family: 'Inter', sans-serif; }
      .text-white { fill: #FFFFFF; font-family: 'Inter', sans-serif; }
      .border { stroke: #E5E7EB; fill: none; }

      .h1 { font-size: 24px; font-weight: 700; }
      .h2 { font-size: 20px; font-weight: 600; }
      .h3 { font-size: 16px; font-weight: 600; }
      .body { font-size: 14px; font-weight: 400; }
      .caption { font-size: 12px; font-weight: 400; }
      .number-xl { font-size: 40px; font-weight: 700; }
      .number-lg { font-size: 28px; font-weight: 600; }
      .number-md { font-size: 20px; font-weight: 600; }

      .shadow { filter: drop-shadow(0px 1px 2px rgba(0,0,0,0.05)); }
      .shadow-md { filter: drop-shadow(0px 4px 6px rgba(0,0,0,0.05)); }
    </style>
  </defs>

  <!-- Screen 1: Home Screen - CLEAN VERSION -->
  <g id="home-screen-clean">
    <!-- Background -->
    <rect class="screen-bg" width="360" height="800"/>

    <!-- Header -->
    <rect fill="#FFFFFF" width="360" height="64"/>
    <line x1="0" y1="64" x2="360" y2="64" stroke="#E5E7EB" stroke-width="1"/>

    <!-- Logo/Title -->
    <circle fill="#2563EB" cx="24" cy="32" r="8"/>
    <text class="text-primary h3" x="44" y="38">STARA</text>
    <text class="text-secondary caption" x="44" y="50">Kota Semarang</text>

    <!-- Search Icon -->
    <circle class="border" cx="328" cy="32" r="18" stroke-width="1.5"/>
    <line x1="336" y1="40" x2="342" y2="46" stroke="#6B7280" stroke-width="2" stroke-linecap="round"/>
    <circle fill="none" stroke="#6B7280" cx="328" cy="32" r="6" stroke-width="2"/>

    <!-- Stats Cards Row -->
    <g transform="translate(16, 80)">
      <!-- Card 1: Population -->
      <g class="shadow">
        <rect class="card" width="104" height="96" rx="8"/>
        <rect class="border" width="104" height="96" rx="8" stroke-width="1"/>
        <text class="text-secondary caption" x="12" y="20">Populasi</text>
        <text class="text-primary number-md" x="12" y="50">1.84M</text>
        <g transform="translate(12, 62)">
          <rect fill="#DCFCE7" width="42" height="20" rx="4"/>
          <text fill="#10B981" class="caption" font-weight="500" x="6" y="14">+2.1%</text>
        </g>
      </g>

      <!-- Card 2: Inflation -->
      <g transform="translate(112, 0)" class="shadow">
        <rect class="card" width="104" height="96" rx="8"/>
        <rect class="border" width="104" height="96" rx="8" stroke-width="1"/>
        <text class="text-secondary caption" x="12" y="20">Inflasi</text>
        <text class="text-primary number-md" x="12" y="50">3.2%</text>
        <g transform="translate(12, 62)">
          <rect fill="#FEF3C7" width="42" height="20" rx="4"/>
          <text fill="#F59E0B" class="caption" font-weight="500" x="6" y="14">-0.4%</text>
        </g>
      </g>

      <!-- Card 3: IPM -->
      <g transform="translate(224, 0)" class="shadow">
        <rect class="card" width="104" height="96" rx="8"/>
        <rect class="border" width="104" height="96" rx="8" stroke-width="1"/>
        <text class="text-secondary caption" x="12" y="20">IPM</text>
        <text class="text-primary number-md" x="12" y="50">78.5</text>
        <g transform="translate(12, 62)">
          <rect fill="#DCFCE7" width="42" height="20" rx="4"/>
          <text fill="#10B981" class="caption" font-weight="500" x="6" y="14">+1.2</text>
        </g>
      </g>
    </g>

    <!-- Last Updated -->
    <text class="text-secondary caption" x="16" y="200">Terakhir diperbarui: 28 Jan 2026, 08:00</text>

    <!-- Divider -->
    <line x1="16" y1="216" x2="344" y2="216" stroke="#E5E7EB" stroke-width="1"/>

    <!-- Categories Section -->
    <text class="text-primary h3" x="16" y="242">Kategori Statistik</text>

    <!-- Category List -->
    <g transform="translate(0, 258)">
      <!-- Category 1: Penduduk -->
      <g class="shadow">
        <rect class="card" x="16" width="328" height="64" rx="8"/>
        <rect class="border" x="16" width="328" height="64" rx="8" stroke-width="1"/>
        <circle fill="#DBEAFE" cx="44" cy="32" r="16"/>
        <text class="text-primary body" font-weight="500" x="72" y="28">Penduduk</text>
        <text class="text-secondary caption" x="72" y="44">Data populasi dan demografi</text>
        <path d="M 320 30 L 326 32 L 320 34" fill="none" stroke="#9CA3AF" stroke-width="1.5" stroke-linecap="round" stroke-linejoin="round"/>
      </g>

      <!-- Category 2: Pertumbuhan Ekonomi -->
      <g transform="translate(0, 72)" class="shadow">
        <rect class="card" x="16" width="328" height="64" rx="8"/>
        <rect class="border" x="16" width="328" height="64" rx="8" stroke-width="1"/>
        <circle fill="#DBEAFE" cx="44" cy="32" r="16"/>
        <text class="text-primary body" font-weight="500" x="72" y="28">Pertumbuhan Ekonomi</text>
        <text class="text-secondary caption" x="72" y="44">Indikator ekonomi regional</text>
        <path d="M 320 30 L 326 32 L 320 34" fill="none" stroke="#9CA3AF" stroke-width="1.5" stroke-linecap="round" stroke-linejoin="round"/>
      </g>

      <!-- Category 3: Pendidikan -->
      <g transform="translate(0, 144)" class="shadow">
        <rect class="card" x="16" width="328" height="64" rx="8"/>
        <rect class="border" x="16" width="328" height="64" rx="8" stroke-width="1"/>
        <circle fill="#DBEAFE" cx="44" cy="32" r="16"/>
        <text class="text-primary body" font-weight="500" x="72" y="28">Pendidikan</text>
        <text class="text-secondary caption" x="72" y="44">Statistik pendidikan dan literasi</text>
        <path d="M 320 30 L 326 32 L 320 34" fill="none" stroke="#9CA3AF" stroke-width="1.5" stroke-linecap="round" stroke-linejoin="round"/>
      </g>

      <!-- Category 4: Kemiskinan -->
      <g transform="translate(0, 216)" class="shadow">
        <rect class="card" x="16" width="328" height="64" rx="8"/>
        <rect class="border" x="16" width="328" height="64" rx="8" stroke-width="1"/>
        <circle fill="#DBEAFE" cx="44" cy="32" r="16"/>
        <text class="text-primary body" font-weight="500" x="72" y="28">Kemiskinan</text>
        <text class="text-secondary caption" x="72" y="44">Data kemiskinan dan kesejahteraan</text>
        <path d="M 320 30 L 326 32 L 320 34" fill="none" stroke="#9CA3AF" stroke-width="1.5" stroke-linecap="round" stroke-linejoin="round"/>
      </g>

      <!-- Category 5: Tenaga Kerja -->
      <g transform="translate(0, 288)" class="shadow">
        <rect class="card" x="16" width="328" height="64" rx="8"/>
        <rect class="border" x="16" width="328" height="64" rx="8" stroke-width="1"/>
        <circle fill="#DBEAFE" cx="44" cy="32" r="16"/>
        <text class="text-primary body" font-weight="500" x="72" y="28">Tenaga Kerja</text>
        <text class="text-secondary caption" x="72" y="44">Statistik ketenagakerjaan</text>
        <path d="M 320 30 L 326 32 L 320 34" fill="none" stroke="#9CA3AF" stroke-width="1.5" stroke-linecap="round" stroke-linejoin="round"/>
      </g>
    </g>

    <!-- View All Link -->
    <g transform="translate(16, 618)">
      <rect fill="none" stroke="#2563EB" width="328" height="48" rx="8" stroke-width="1.5"/>
      <text class="text-primary body" font-weight="500" x="114" y="30" fill="#2563EB">Lihat Semua Kategori</text>
    </g>

    <!-- Bottom Navigation -->
    <rect fill="#FFFFFF" y="744" width="360" height="56"/>
    <line x1="0" y1="744" x2="360" y2="744" stroke="#E5E7EB" stroke-width="1"/>

    <g id="nav-items">
      <!-- Home (Active) -->
      <g transform="translate(60, 760)">
        <rect fill="#2563EB" x="15" y="0" width="24" height="3" rx="1.5"/>
        <circle fill="#2563EB" cx="27" cy="12" r="3"/>
        <rect fill="#2563EB" x="21" y="15" width="12" height="8" rx="1"/>
        <text class="caption" fill="#2563EB" text-anchor="middle" x="27" y="38">Beranda</text>
      </g>

      <!-- Data -->
      <g transform="translate(168, 760)">
        <rect fill="none" stroke="#9CA3AF" x="21" y="6" width="12" height="14" rx="1" stroke-width="1.5"/>
        <line x1="24" y1="9" x2="30" y2="9" stroke="#9CA3AF" stroke-width="1.5"/>
        <line x1="24" y1="12" x2="30" y2="12" stroke="#9CA3AF" stroke-width="1.5"/>
        <line x1="24" y1="15" x2="30" y2="15" stroke="#9CA3AF" stroke-width="1.5"/>
        <text class="caption text-secondary" text-anchor="middle" x="27" y="38">Data</text>
      </g>

      <!-- Profile -->
      <g transform="translate(276, 760)">
        <circle fill="none" stroke="#9CA3AF" cx="27" cy="10" r="4" stroke-width="1.5"/>
        <path d="M 18 22 Q 27 18, 36 22" fill="none" stroke="#9CA3AF" stroke-width="1.5" stroke-linecap="round"/>
        <text class="caption text-secondary" text-anchor="middle" x="27" y="38">Profil</text>
      </g>
    </g>
  </g>

  <!-- Screen 2: Detail View - CLEAN VERSION -->
  <g id="detail-screen-clean" transform="translate(400, 0)">
    <!-- Background -->
    <rect class="screen-bg" width="360" height="800"/>

    <!-- Header -->
    <rect fill="#FFFFFF" width="360" height="56"/>
    <line x1="0" y1="56" x2="360" y2="56" stroke="#E5E7EB" stroke-width="1"/>

    <!-- Back Button -->
    <path d="M 24 28 L 16 28 M 16 28 L 20 24 M 16 28 L 20 32" fill="none" stroke="#111827" stroke-width="2" stroke-linecap="round" stroke-linejoin="round"/>

    <text class="text-primary h3" x="44" y="36">Penduduk</text>

    <!-- Main Stat Card -->
    <g transform="translate(16, 72)" class="shadow-md">
      <rect class="card" width="328" height="140" rx="12"/>
      <rect class="border" width="328" height="140" rx="12" stroke-width="1"/>

      <text class="text-secondary body" x="24" y="30">Total Populasi</text>
      <text class="text-primary number-xl" x="24" y="80">1,847,056</text>
      <text class="text-secondary body" x="24" y="100">jiwa</text>

      <!-- Trend Badge -->
      <g transform="translate(24, 108)">
        <rect fill="#DCFCE7" width="120" height="24" rx="6"/>
        <path d="M 12 15 L 16 11 L 20 15" fill="none" stroke="#10B981" stroke-width="2" stroke-linecap="round" stroke-linejoin="round"/>
        <text fill="#10B981" class="caption" font-weight="500" x="28" y="16">+2.1% dari 2024</text>
      </g>

      <text class="text-secondary caption" x="230" y="125">Update: 1 Jan 2026</text>
    </g>

    <!-- Chart Section -->
    <text class="text-primary h3" x="16" y="250">Trend 5 Tahun Terakhir</text>

    <g transform="translate(16, 270)" class="shadow">
      <rect class="card" width="328" height="200" rx="12"/>
      <rect class="border" width="328" height="200" rx="12" stroke-width="1"/>

      <!-- Y-axis labels -->
      <text class="text-secondary caption" x="16" y="30">1.85M</text>
      <text class="text-secondary caption" x="16" y="75">1.80M</text>
      <text class="text-secondary caption" x="16" y="120">1.75M</text>
      <text class="text-secondary caption" x="16" y="165">1.70M</text>

      <!-- Grid lines -->
      <line x1="55" y1="25" x2="310" y2="25" stroke="#F3F4F6" stroke-width="1"/>
      <line x1="55" y1="70" x2="310" y2="70" stroke="#F3F4F6" stroke-width="1"/>
      <line x1="55" y1="115" x2="310" y2="115" stroke="#F3F4F6" stroke-width="1"/>
      <line x1="55" y1="160" x2="310" y2="160" stroke="#F3F4F6" stroke-width="1"/>

      <!-- Line chart -->
      <polyline points="70,140 115,125 160,110 205,90 250,65 295,35"
                fill="none" stroke="#2563EB" stroke-width="3" stroke-linecap="round" stroke-linejoin="round"/>

      <!-- Data points -->
      <circle cx="70" cy="140" r="4" fill="#FFFFFF" stroke="#2563EB" stroke-width="2"/>
      <circle cx="115" cy="125" r="4" fill="#FFFFFF" stroke="#2563EB" stroke-width="2"/>
      <circle cx="160" cy="110" r="4" fill="#FFFFFF" stroke="#2563EB" stroke-width="2"/>
      <circle cx="205" cy="90" r="4" fill="#FFFFFF" stroke="#2563EB" stroke-width="2"/>
      <circle cx="250" cy="65" r="4" fill="#FFFFFF" stroke="#2563EB" stroke-width="2"/>
      <circle cx="295" cy="35" r="5" fill="#10B981" stroke="#FFFFFF" stroke-width="2"/>

      <!-- X-axis labels -->
      <text class="text-secondary caption" text-anchor="middle" x="70" y="185">2020</text>
      <text class="text-secondary caption" text-anchor="middle" x="115" y="185">2021</text>
      <text class="text-secondary caption" text-anchor="middle" x="160" y="185">2022</text>
      <text class="text-secondary caption" text-anchor="middle" x="205" y="185">2023</text>
      <text class="text-secondary caption" text-anchor="middle" x="250" y="185">2024</text>
      <text class="text-secondary caption" text-anchor="middle" x="295" y="185">2025</text>
    </g>

    <!-- Distribution Section -->
    <text class="text-primary h3" x="16" y="510">Distribusi Usia</text>

    <g transform="translate(16, 530)" class="shadow">
      <rect class="card" width="328" height="140" rx="12"/>
      <rect class="border" width="328" height="140" rx="12" stroke-width="1"/>

      <!-- Bar 1 -->
      <text class="text-secondary body" x="16" y="35">0-14 tahun</text>
      <rect fill="#DBEAFE" x="16" y="42" width="180" height="8" rx="4"/>
      <text class="text-primary body" font-weight="600" x="205" y="50">22.3%</text>

      <!-- Bar 2 -->
      <text class="text-secondary body" x="16" y="75">15-64 tahun</text>
      <rect fill="#DBEAFE" x="16" y="82" width="260" height="8" rx="4"/>
      <text class="text-primary body" font-weight="600" x="285" y="90">68.1%</text>

      <!-- Bar 3 -->
      <text class="text-secondary body" x="16" y="115">65+ tahun</text>
      <rect fill="#DBEAFE" x="16" y="122" width="70" height="8" rx="4"/>
      <text class="text-primary body" font-weight="600" x="95" y="130">9.6%</text>
    </g>

    <!-- Info Cards -->
    <g transform="translate(16, 690)" class="shadow">
      <rect class="card" width="156" height="72" rx="8"/>
      <rect class="border" width="156" height="72" rx="8" stroke-width="1"/>
      <text class="text-secondary caption" x="16" y="24">Kepadatan</text>
      <text class="text-primary number-md" x="16" y="52">4,812</text>
      <text class="text-secondary caption" x="16" y="66">jiwa/km²</text>
    </g>

    <g transform="translate(188, 690)" class="shadow">
      <rect class="card" width="156" height="72" rx="8"/>
      <rect class="border" width="156" height="72" rx="8" stroke-width="1"/>
      <text class="text-secondary caption" x="16" y="24">Luas Wilayah</text>
      <text class="text-primary number-md" x="16" y="52">384</text>
      <text class="text-secondary caption" x="16" y="66">km²</text>
    </g>

    <!-- Source -->
    <text class="text-secondary caption" x="16" y="785">Sumber: Badan Pusat Statistik Kota Semarang</text>
  </g>

  <!-- Screen 3: Search - CLEAN VERSION -->
  <g id="search-screen-clean" transform="translate(800, 0)">
    <!-- Background -->
    <rect class="screen-bg" width="360" height="800"/>

    <!-- Header -->
    <rect fill="#FFFFFF" width="360" height="56"/>
    <line x1="0" y1="56" x2="360" y2="56" stroke="#E5E7EB" stroke-width="1"/>

    <!-- Back Button -->
    <path d="M 24 28 L 16 28 M 16 28 L 20 24 M 16 28 L 20 32" fill="none" stroke="#111827" stroke-width="2" stroke-linecap="round" stroke-linejoin="round"/>

    <text class="text-primary h3" x="44" y="36">Pencarian</text>

    <!-- Search Bar -->
    <g transform="translate(16, 72)" class="shadow">
      <rect class="card" width="328" height="48" rx="24"/>
      <rect class="border" width="328" height="48" rx="24" stroke-width="1.5"/>

      <circle fill="none" stroke="#9CA3AF" cx="28" cy="24" r="7" stroke-width="2"/>
      <line x1="33" y1="29" x2="37" y2="33" stroke="#9CA3AF" stroke-width="2" stroke-linecap="round"/>

      <text class="text-secondary body" x="50" y="30">Cari data statistik...</text>
    </g>

    <!-- Filter Chips -->
    <text class="text-primary h3" x="16" y="156">Filter</text>

    <g transform="translate(16, 170)">
      <rect fill="#2563EB" width="80" height="32" rx="16"/>
      <text class="text-white caption" font-weight="500" x="20" y="21">Semua</text>

      <rect fill="none" stroke="#E5E7EB" x="92" width="80" height="32" rx="16" stroke-width="1.5"/>
      <text class="text-secondary caption" x="112" y="21">2025</text>

      <rect fill="none" stroke="#E5E7EB" x="184" width="90" height="32" rx="16" stroke-width="1.5"/>
      <text class="text-secondary caption" x="196" y="21">Terbaru</text>
    </g>

    <!-- Results -->
    <text class="text-primary h3" x="16" y="238">Hasil Pencarian</text>
    <text class="text-secondary body" x="16" y="260">23 data ditemukan</text>

    <!-- Result Item 1 -->
    <g transform="translate(16, 280)" class="shadow">
      <rect class="card" width="328" height="80" rx="8"/>
      <rect class="border" width="328" height="80" rx="8" stroke-width="1"/>

      <text class="text-primary body" font-weight="600" x="20" y="30">Inflasi Tahun 2025</text>
      <text class="text-secondary caption" x="20" y="48">Kategori: Inflasi</text>
      <text class="text-secondary caption" x="20" y="64">Diperbarui 15 Jan 2026</text>

      <circle fill="#10B981" cx="300" cy="40" r="4"/>
    </g>

    <!-- Result Item 2 -->
    <g transform="translate(16, 372)" class="shadow">
      <rect class="card" width="328" height="80" rx="8"/>
      <rect class="border" width="328" height="80" rx="8" stroke-width="1"/>

      <text class="text-primary body" font-weight="600" x="20" y="30">Populasi Usia Produktif</text>
      <text class="text-secondary caption" x="20" y="48">Kategori: Penduduk</text>
      <text class="text-secondary caption" x="20" y="64">Diperbarui 1 Jan 2026</text>

      <circle fill="#10B981" cx="300" cy="40" r="4"/>
    </g>

    <!-- Result Item 3 -->
    <g transform="translate(16, 464)" class="shadow">
      <rect class="card" width="328" height="80" rx="8"/>
      <rect class="border" width="328" height="80" rx="8" stroke-width="1"/>

      <text class="text-primary body" font-weight="600" x="20" y="30">Tingkat Literasi Dewasa</text>
      <text class="text-secondary caption" x="20" y="48">Kategori: Pendidikan</text>
      <text class="text-secondary caption" x="20" y="64">Diperbarui 10 Jan 2026</text>

      <circle fill="#10B981" cx="300" cy="40" r="4"/>
    </g>

    <!-- Result Item 4 -->
    <g transform="translate(16, 556)" class="shadow">
      <rect class="card" width="328" height="80" rx="8"/>
      <rect class="border" width="328" height="80" rx="8" stroke-width="1"/>

      <text class="text-primary body" font-weight="600" x="20" y="30">Data Kemiskinan Regional</text>
      <text class="text-secondary caption" x="20" y="48">Kategori: Kemiskinan</text>
      <text class="text-secondary caption" x="20" y="64">Diperbarui 5 Jan 2026</text>

      <circle fill="#10B981" cx="300" cy="40" r="4"/>
    </g>

    <!-- Load More -->
    <g transform="translate(16, 660)">
      <rect fill="none" stroke="#E5E7EB" width="328" height="44" rx="8" stroke-width="1.5"/>
      <text class="text-secondary body" font-weight="500" text-anchor="middle" x="164" y="28">Muat Lebih Banyak</text>
    </g>
  </g>

  <!-- Screen Labels -->
  <text class="text-primary" font-size="13" font-weight="600" x="130" y="830">HOME</text>
  <text class="text-primary" font-size="13" font-weight="600" x="510" y="830">DETAIL</text>
  <text class="text-primary" font-size="13" font-weight="600" x="905" y="830">SEARCH</text>

  <!-- Design System Panel -->
  <g transform="translate(0, 870)">
    <rect fill="#FFFFFF" width="1180" height="380" rx="12"/>
    <rect class="border" width="1180" height="380" rx="12" stroke-width="1"/>

    <!-- Header -->
    <rect fill="#F9FAFB" width="1180" height="48" rx="12"/>
    <rect fill="#F9FAFB" width="1180" height="12"/>
    <text class="text-primary h2" x="24" y="32">Design System - Professional & Simplistic</text>

    <!-- Colors -->
    <text class="text-primary h3" x="24" y="80">Color Palette</text>

    <g transform="translate(24, 95)">
      <rect fill="#2563EB" width="90" height="60" rx="6"/>
      <text class="text-white caption" x="8" y="35">#2563EB</text>
      <text class="text-secondary caption" x="15" y="80">Primary</text>

      <rect fill="#10B981" x="110" width="90" height="60" rx="6"/>
      <text class="text-white caption" x="118" y="35">#10B981</text>
      <text class="text-secondary caption" x="120" y="80">Success</text>

      <rect fill="#F59E0B" x="220" width="90" height="60" rx="6"/>
      <text class="text-white caption" x="228" y="35">#F59E0B</text>
      <text class="text-secondary caption" x="225" y="80">Warning</text>

      <rect fill="#111827" x="330" width="90" height="60" rx="6"/>
      <text class="text-white caption" x="338" y="35">#111827</text>
      <text class="text-secondary caption" x="340" y="80">Text</text>

      <rect fill="#6B7280" x="440" width="90" height="60" rx="6"/>
      <text class="text-white caption" x="448" y="35">#6B7280</text>
      <text class="text-secondary caption" x="435" y="80">Secondary</text>

      <rect fill="#FAFAFA" stroke="#E5E7EB" x="550" width="90" height="60" rx="6" stroke-width="1"/>
      <text class="text-primary caption" x="558" y="35">#FAFAFA</text>
      <text class="text-secondary caption" x="550" y="80">Background</text>
    </g>

    <!-- Typography -->
    <text class="text-primary h3" x="690" y="80">Typography</text>

    <g transform="translate(690, 95)">
      <text class="text-primary" font-size="40" font-weight="700" y="35">Aa</text>
      <text class="text-secondary caption" x="60" y="25">Inter Bold 40px</text>
      <text class="text-secondary caption" x="60" y="40">Numbers</text>

      <text class="text-primary" font-size="20" font-weight="600" y="80">Aa</text>
      <text class="text-secondary caption" x="40" y="75">Inter SemiBold 20px</text>
      <text class="text-secondary caption" x="40" y="90">Headings</text>

      <text class="text-primary" font-size="14" font-weight="400" y="120">Aa</text>
      <text class="text-secondary caption" x="30" y="115">Inter Regular 14px</text>
      <text class="text-secondary caption" x="30" y="130">Body</text>
    </g>

    <!-- Spacing -->
    <text class="text-primary h3" x="24" y="210">Spacing & Layout</text>

    <g transform="translate(24, 225)">
      <rect fill="none" stroke="#E5E7EB" width="200" height="80" rx="8" stroke-width="1"/>
      <rect fill="#DBEAFE" x="16" y="16" width="168" height="48" rx="4"/>

      <!-- Margin indicators -->
      <line x1="0" y1="0" x2="16" y2="0" stroke="#2563EB" stroke-width="1" stroke-dasharray="2,2"/>
      <line x1="0" y1="16" x2="16" y2="16" stroke="#2563EB" stroke-width="1" stroke-dasharray="2,2"/>
      <text fill="#2563EB" class="caption" x="2" y="10">16</text>

      <text class="text-secondary caption" y="105">16px margins, 8px radius</text>
    </g>

    <g transform="translate(260, 225)">
      <circle fill="none" stroke="#E5E7EB" cx="40" cy="40" r="38" stroke-width="1"/>
      <circle fill="#DBEAFE" cx="40" cy="40" r="24"/>
      <text class="text-primary caption" text-anchor="middle" x="40" y="45">48×48</text>

      <text class="text-secondary caption" y="105">Minimum touch target</text>
    </g>

    <g transform="translate(380, 225)">
      <rect class="card shadow" width="120" height="80" rx="8"/>
      <rect class="border" width="120" height="80" rx="8" stroke-width="1"/>

      <text class="text-secondary caption" y="105">Cards: 8px radius, subtle shadow</text>
    </g>

    <!-- Principles -->
    <text class="text-primary h3" x="24" y="350">Design Principles</text>

    <g transform="translate(24, 365)">
      <circle fill="#10B981" cx="4" cy="-4" r="3"/>
      <text class="text-primary body" x="16" y="0">Professional: Clean lines, consistent spacing, minimal decoration</text>
    </g>

    <g transform="translate(24, 390)">
      <circle fill="#10B981" cx="4" cy="-4" r="3"/>
      <text class="text-primary body" x="16" y="0">Simplistic: Maximum whitespace, focused content, clear hierarchy</text>
    </g>

    <g transform="translate(24, 415)">
      <circle fill="#10B981" cx="4" cy="-4" r="3"/>
      <text class="text-primary body" x="16" y="0">Easy to Understand: Simple icons, clear labels, intuitive navigation</text>
    </g>

    <!-- Status -->
    <g transform="translate(720, 350)">
      <rect fill="#DCFCE7" width="180" height="32" rx="16"/>
      <circle fill="#10B981" cx="20" cy="16" r="5"/>
      <text class="text-primary body" font-weight="500" x="36" y="21">Ready for Development</text>
    </g>

    <text class="text-secondary caption" x="720" y="400">Updated: 28 Jan 2026</text>
    <text class="text-secondary caption" x="720" y="420">Version: 2.0 - Clean Design</text>
  </g>
</svg>
